# xmcd CD database file generated by Grip 2.94
# 
# Track frame offsets:
#       150
#       16950
#       38175
#       49875
#       72375
#       90150
#       105450
#       123975
#       141975
#       158850
# 
# Disc length: 2397 seconds
# 
# Revision: 3
# Processed by: cddbd v1.4b42PL0 Copyright (c) Steve Scherf et al.
# Submitted via: Grip 2.94
# 
DISCID=7f095b0a
DTITLE=Albert Lee - Hiding
DYEAR=1900
DGENRE=
TTITLE0=Country Boy
TTITLE1=Billy Tyler
TTITLE2=Are You Wasting My time?
TTITLE3=Now And Then It's Going To Rain
TTITLE4=On A Real Good Night
TTITLE5=Setting Me Up
TTITLE6=Ain't Living Long Like This
TTITLE7=Hiding
TTITLE8=Hotel Love
TTITLE9=Come Up And See Me Anytime
EXTD=
EXTT0=
EXTT1=
EXTT2=
EXTT3=
EXTT4=
EXTT5=
EXTT6=
EXTT7=
EXTT8=
EXTT9=
PLAYORDER=
